:FULLY-SPECIFIED
:FORCE-ALL-JOINTS-BE-3DOF
:DEGREES
1
root -2.95645 16.8291 -36.2757 3.79203 -0.409345 -2.77144
lfemur -18.1857 -3.85478 -7.37129
ltibia 37.6337 0 0
lfoot -17.8071 6.78532 0
ltoes -26.1578 0 0
rfemur -19.1521 0.15077 14.7318
rtibia 40.3652 0 0
rfoot -23.1652 -2.86285 0
rtoes -21.0274 0 0
lowerback 7.02591 2.55716 -1.97249
upperback -3.14202 3.31583 1.27229
thorax -7.43554 1.75645 1.99661
lowerneck -4.68188 -4.04088 -6.84108
upperneck 4.69893 -5.30737 6.47589
head 2.76948 -2.5844 3.14763
lclavicle 1.91563e-15 -9.24349e-15 0
lhumerus -27.0689 -5.33108 89.6453
lradius 25.7364 0 0
lwrist -30.6252 0 0
lhand -28.8405 29.9909 0
lfingers 7.12502 0 0
lthumb -2.19771 59.9594 0
rclavicle 1.91563e-15 -9.24349e-15 0
rhumerus -32.8355 4.71181 -81.727
rradius 32.9783 0 0
rwrist 3.84135 0 0
rhand -24.1523 -25.0894 0
rfingers 7.12502 0 0
rthumb 2.33029 -55.0564 0
2
root -2.95726 16.8257 -36.2792 3.78704 -0.410387 -2.77063
lfemur -18.183 -3.84236 -7.37364
ltibia 37.6375 -0 0
lfoot -17.8091 6.77938 5.87811e-05
ltoes -26.1343 0 0
rfemur -19.1512 0.143735 14.731
rtibia 40.3712 -0 0
rfoot -23.1655 -2.85367 -1.13948e-05
rtoes -21.0014 0 0
lowerback 7.03424 2.5567 -1.97259
upperback -3.10864 3.29525 1.27567
thorax -7.43904 1.75609 1.99663
lowerneck -4.64431 -4.02487 -6.8362
upperneck 4.67574 -5.28754 6.47619
head 2.75295 -2.57504 3.14807
lclavicle 6.48147e-15 -9.15652e-15 0
lhumerus -27.0396 -5.31877 89.6812
lradius 25.7328 -0 0
lwrist -30.5907 0 0
lhand -28.8452 29.9744 1.32811e-05
lfingers 7.12502 -0 0
lthumb -2.20221 59.9428 1.28644e-05
rclavicle 6.48147e-15 -9.15652e-15 0
rhumerus -32.8344 4.70843 -81.7247
rradius 32.9737 -0 0
rwrist 3.80589 0 0
rhand -24.1489 -25.092 -4.41943e-05
rfingers 7.12502 -0 0
rthumb 2.33355 -55.059 -4.1875e-05
3
root -2.95806 16.8223 -36.2826 3.7724 -0.413445 -2.76825
lfemur -18.1749 -3.80594 -7.38052
ltibia 37.6486 -0 0
lfoot -17.8149 6.76197 0.000230045
ltoes -26.0652 0 0
rfemur -19.1487 0.123095 14.7286
rtibia 40.3887 -0 0
rfoot -23.1662 -2.82674 -4.45948e-05
rtoes -20.9252 0 0
lowerback 7.05869 2.55537 -1.97287
upperback -3.13724 3.31288 1.27278
thorax -7.4493 1.75502 1.9967
lowerneck -4.6765 -4.03858 -6.84038
upperneck 4.69561 -5.30453 6.47593
head 2.73683 -2.56591 3.14851
lclavicle 6.48147e-15 -9.15652e-15 0
lhumerus -27.0647 -5.32932 89.6504
lradius 25.7292 -0 0
lwrist -30.6203 0 0
lhand -28.8497 29.9583 2.49389e-05
lfingers 7.12502 -0 0
lthumb -2.20661 59.9267 2.41564e-05
rclavicle 6.48147e-15 -9.15652e-15 0
rhumerus -32.8312 4.69853 -81.7181
rradius 32.9601 -0 0
rwrist 3.83627 0 0
rhand -24.139 -25.0998 -0.000172958
rfingers 7.12502 -0 0
rthumb 2.3431 -55.0666 -0.000163882
4
root -2.95887 16.8189 -36.2861 3.74862 -0.418414 -2.76438
lfemur -18.1619 -3.74673 -7.39169
ltibia 37.6666 -0 0
lfoot -17.8245 6.73366 0.000504614
ltoes -25.9529 0 0
rfemur -19.1445 0.0895488 14.7248
rtibia 40.4171 -0 0
rfoot -23.1674 -2.78297 -9.78209e-05
rtoes -20.8012 0 0
lowerback 7.09843 2.5532 -1.97333
upperback -3.13144 3.3093 1.27336
thorax -7.46597 1.75329 1.9968
lowerneck -4.66997 -4.0358 -6.83954
upperneck 4.69158 -5.30108 6.47599
head 2.76424 -2.58143 3.14777
lclavicle 6.48147e-15 -9.15652e-15 0
lhumerus -27.0596 -5.32718 89.6567
lradius 25.7258 -0 0
lwrist -30.6143 0 0
lhand -28.8541 29.9426 3.50707e-05
lfingers 7.12502 -0 0
lthumb -2.21089 59.9109 3.39702e-05
rclavicle 6.48147e-15 -9.15652e-15 0
rhumerus -32.826 4.68242 -81.7074
rradius 32.938 -0 0
rwrist 3.83011 0 0
rhand -24.123 -25.1124 -0.000379391
rfingers 7.12502 -0 0
rthumb 2.35862 -55.079 -0.000359481
